<mxfile host="app.diagrams.net" modified="2024-02-15T11:04:19.084Z" agent="Mozilla/5.0 (Windows NT 10.0; Win64; x64) AppleWebKit/537.36 (KHTML, like Gecko) Chrome/121.0.0.0 Safari/537.36" etag="gbgnohFO8DCAtAMamOeH" version="23.1.4" type="device">
  <diagram name="Page-1" id="G_EyhvAucmUibiY34LTb">
    <mxGraphModel dx="2427" dy="2671" grid="1" gridSize="10" guides="1" tooltips="1" connect="1" arrows="1" fold="1" page="1" pageScale="1" pageWidth="850" pageHeight="1100" math="0" shadow="0">
      <root>
        <mxCell id="0" />
        <mxCell id="1" parent="0" />
        <mxCell id="bC90QqJXI56sHLxBbMQ--1" value="" style="shape=umlLifeline;perimeter=lifelinePerimeter;whiteSpace=wrap;html=1;container=1;dropTarget=0;collapsible=0;recursiveResize=0;outlineConnect=0;portConstraint=eastwest;newEdgeStyle={&quot;curved&quot;:0,&quot;rounded&quot;:0};participant=umlActor;size=90;" vertex="1" parent="1">
          <mxGeometry x="50" y="-10" width="40" height="1330" as="geometry" />
        </mxCell>
        <mxCell id="bC90QqJXI56sHLxBbMQ--10" value="" style="html=1;points=[[0,0,0,0,5],[0,1,0,0,-5],[1,0,0,0,5],[1,1,0,0,-5]];perimeter=orthogonalPerimeter;outlineConnect=0;targetShapes=umlLifeline;portConstraint=eastwest;newEdgeStyle={&quot;curved&quot;:0,&quot;rounded&quot;:0};" vertex="1" parent="bC90QqJXI56sHLxBbMQ--1">
          <mxGeometry x="15" y="131" width="10" height="239" as="geometry" />
        </mxCell>
        <mxCell id="bC90QqJXI56sHLxBbMQ--70" value="" style="html=1;points=[[0,0,0,0,5],[0,1,0,0,-5],[1,0,0,0,5],[1,1,0,0,-5]];perimeter=orthogonalPerimeter;outlineConnect=0;targetShapes=umlLifeline;portConstraint=eastwest;newEdgeStyle={&quot;curved&quot;:0,&quot;rounded&quot;:0};" vertex="1" parent="bC90QqJXI56sHLxBbMQ--1">
          <mxGeometry x="10" y="1090" width="15" height="46" as="geometry" />
        </mxCell>
        <mxCell id="bC90QqJXI56sHLxBbMQ--6" value="&lt;font style=&quot;font-size: 20px;&quot;&gt;&lt;b&gt;:Adminlogin&lt;/b&gt;&lt;/font&gt;" style="shape=umlLifeline;perimeter=lifelinePerimeter;whiteSpace=wrap;html=1;container=1;dropTarget=0;collapsible=0;recursiveResize=0;outlineConnect=0;portConstraint=eastwest;newEdgeStyle={&quot;curved&quot;:0,&quot;rounded&quot;:0};size=50;" vertex="1" parent="1">
          <mxGeometry x="190" y="27" width="130" height="1293" as="geometry" />
        </mxCell>
        <mxCell id="bC90QqJXI56sHLxBbMQ--11" value="" style="html=1;points=[[0,0,0,0,5],[0,1,0,0,-5],[1,0,0,0,5],[1,1,0,0,-5]];perimeter=orthogonalPerimeter;outlineConnect=0;targetShapes=umlLifeline;portConstraint=eastwest;newEdgeStyle={&quot;curved&quot;:0,&quot;rounded&quot;:0};" vertex="1" parent="bC90QqJXI56sHLxBbMQ--6">
          <mxGeometry x="60" y="94" width="10" height="226" as="geometry" />
        </mxCell>
        <mxCell id="bC90QqJXI56sHLxBbMQ--78" value="" style="html=1;points=[[0,0,0,0,5],[0,1,0,0,-5],[1,0,0,0,5],[1,1,0,0,-5]];perimeter=orthogonalPerimeter;outlineConnect=0;targetShapes=umlLifeline;portConstraint=eastwest;newEdgeStyle={&quot;curved&quot;:0,&quot;rounded&quot;:0};" vertex="1" parent="bC90QqJXI56sHLxBbMQ--6">
          <mxGeometry x="60" y="1114" width="10" height="40" as="geometry" />
        </mxCell>
        <mxCell id="bC90QqJXI56sHLxBbMQ--7" value="&lt;font style=&quot;font-size: 20px;&quot;&gt;&lt;b&gt;:Admindash&lt;/b&gt;&lt;/font&gt;" style="shape=umlLifeline;perimeter=lifelinePerimeter;whiteSpace=wrap;html=1;container=1;dropTarget=0;collapsible=0;recursiveResize=0;outlineConnect=0;portConstraint=eastwest;newEdgeStyle={&quot;curved&quot;:0,&quot;rounded&quot;:0};size=50;" vertex="1" parent="1">
          <mxGeometry x="630" y="27" width="130" height="1293" as="geometry" />
        </mxCell>
        <mxCell id="bC90QqJXI56sHLxBbMQ--18" value="" style="html=1;points=[[0,0,0,0,5],[0,1,0,0,-5],[1,0,0,0,5],[1,1,0,0,-5]];perimeter=orthogonalPerimeter;outlineConnect=0;targetShapes=umlLifeline;portConstraint=eastwest;newEdgeStyle={&quot;curved&quot;:0,&quot;rounded&quot;:0};" vertex="1" parent="bC90QqJXI56sHLxBbMQ--7">
          <mxGeometry x="60" y="186" width="10" height="944" as="geometry" />
        </mxCell>
        <mxCell id="bC90QqJXI56sHLxBbMQ--76" value="&lt;b style=&quot;font-size: 17px;&quot;&gt;Confirm&lt;br&gt;Logout&lt;br&gt;&lt;/b&gt;" style="html=1;align=left;spacingLeft=2;endArrow=block;rounded=0;edgeStyle=orthogonalEdgeStyle;curved=0;rounded=0;fontSize=12;startSize=8;endSize=8;exitX=1.017;exitY=0.918;exitDx=0;exitDy=0;exitPerimeter=0;entryX=0.945;entryY=0.95;entryDx=0;entryDy=0;entryPerimeter=0;" edge="1" parent="bC90QqJXI56sHLxBbMQ--7" source="bC90QqJXI56sHLxBbMQ--18" target="bC90QqJXI56sHLxBbMQ--18">
          <mxGeometry relative="1" as="geometry">
            <mxPoint x="70" y="1053.04" as="sourcePoint" />
            <Array as="points">
              <mxPoint x="100" y="1053" />
              <mxPoint x="100" y="1083" />
            </Array>
            <mxPoint x="80" y="1083" as="targetPoint" />
          </mxGeometry>
        </mxCell>
        <mxCell id="bC90QqJXI56sHLxBbMQ--8" value="&lt;font style=&quot;font-size: 20px;&quot;&gt;&lt;b&gt;:Client&lt;/b&gt;&lt;/font&gt;" style="shape=umlLifeline;perimeter=lifelinePerimeter;whiteSpace=wrap;html=1;container=1;dropTarget=0;collapsible=0;recursiveResize=0;outlineConnect=0;portConstraint=eastwest;newEdgeStyle={&quot;curved&quot;:0,&quot;rounded&quot;:0};size=50;" vertex="1" parent="1">
          <mxGeometry x="856" y="27" width="130" height="1293" as="geometry" />
        </mxCell>
        <mxCell id="bC90QqJXI56sHLxBbMQ--30" value="" style="html=1;points=[[0,0,0,0,5],[0,1,0,0,-5],[1,0,0,0,5],[1,1,0,0,-5]];perimeter=orthogonalPerimeter;outlineConnect=0;targetShapes=umlLifeline;portConstraint=eastwest;newEdgeStyle={&quot;curved&quot;:0,&quot;rounded&quot;:0};" vertex="1" parent="bC90QqJXI56sHLxBbMQ--8">
          <mxGeometry x="60" y="451" width="10" height="139" as="geometry" />
        </mxCell>
        <mxCell id="bC90QqJXI56sHLxBbMQ--35" value="&lt;b&gt;&lt;font style=&quot;font-size: 15px;&quot;&gt;Fill All Details&lt;/font&gt;&lt;/b&gt;" style="html=1;align=left;spacingLeft=2;endArrow=block;rounded=0;edgeStyle=orthogonalEdgeStyle;curved=0;rounded=0;fontSize=12;startSize=8;endSize=8;exitX=0.997;exitY=0.026;exitDx=0;exitDy=0;exitPerimeter=0;" edge="1" target="bC90QqJXI56sHLxBbMQ--30" parent="bC90QqJXI56sHLxBbMQ--8" source="bC90QqJXI56sHLxBbMQ--30">
          <mxGeometry x="0.0067" relative="1" as="geometry">
            <mxPoint x="74" y="453" as="sourcePoint" />
            <Array as="points">
              <mxPoint x="100" y="453" />
              <mxPoint x="100" y="483" />
            </Array>
            <mxPoint x="90" y="483" as="targetPoint" />
            <mxPoint as="offset" />
          </mxGeometry>
        </mxCell>
        <mxCell id="bC90QqJXI56sHLxBbMQ--45" value="" style="html=1;points=[[0,0,0,0,5],[0,1,0,0,-5],[1,0,0,0,5],[1,1,0,0,-5]];perimeter=orthogonalPerimeter;outlineConnect=0;targetShapes=umlLifeline;portConstraint=eastwest;newEdgeStyle={&quot;curved&quot;:0,&quot;rounded&quot;:0};" vertex="1" parent="bC90QqJXI56sHLxBbMQ--8">
          <mxGeometry x="60" y="668" width="10" height="139" as="geometry" />
        </mxCell>
        <mxCell id="bC90QqJXI56sHLxBbMQ--48" value="&lt;b&gt;&lt;font style=&quot;font-size: 15px;&quot;&gt;Fill All Details&lt;/font&gt;&lt;/b&gt;" style="html=1;align=left;spacingLeft=2;endArrow=block;rounded=0;edgeStyle=orthogonalEdgeStyle;curved=0;rounded=0;fontSize=12;startSize=8;endSize=8;exitX=1.02;exitY=0;exitDx=0;exitDy=0;exitPerimeter=0;entryX=0.946;entryY=0.217;entryDx=0;entryDy=0;entryPerimeter=0;" edge="1" parent="bC90QqJXI56sHLxBbMQ--8" source="bC90QqJXI56sHLxBbMQ--45" target="bC90QqJXI56sHLxBbMQ--45">
          <mxGeometry relative="1" as="geometry">
            <mxPoint x="70" y="670" as="sourcePoint" />
            <Array as="points">
              <mxPoint x="100" y="668" />
              <mxPoint x="100" y="698" />
            </Array>
            <mxPoint x="70" y="698" as="targetPoint" />
          </mxGeometry>
        </mxCell>
        <mxCell id="bC90QqJXI56sHLxBbMQ--62" value="" style="html=1;points=[[0,0,0,0,5],[0,1,0,0,-5],[1,0,0,0,5],[1,1,0,0,-5]];perimeter=orthogonalPerimeter;outlineConnect=0;targetShapes=umlLifeline;portConstraint=eastwest;newEdgeStyle={&quot;curved&quot;:0,&quot;rounded&quot;:0};" vertex="1" parent="bC90QqJXI56sHLxBbMQ--8">
          <mxGeometry x="60" y="892" width="10" height="78" as="geometry" />
        </mxCell>
        <mxCell id="bC90QqJXI56sHLxBbMQ--65" value="&lt;b style=&quot;font-size: 17px;&quot;&gt;Confirm&lt;br&gt;Delete&lt;br&gt;&lt;/b&gt;" style="html=1;align=left;spacingLeft=2;endArrow=block;rounded=0;edgeStyle=orthogonalEdgeStyle;curved=0;rounded=0;fontSize=12;startSize=8;endSize=8;exitX=0.951;exitY=0;exitDx=0;exitDy=0;exitPerimeter=0;" edge="1" parent="bC90QqJXI56sHLxBbMQ--8" source="bC90QqJXI56sHLxBbMQ--62" target="bC90QqJXI56sHLxBbMQ--62">
          <mxGeometry relative="1" as="geometry">
            <mxPoint x="74" y="892" as="sourcePoint" />
            <Array as="points">
              <mxPoint x="100" y="892" />
              <mxPoint x="100" y="922" />
            </Array>
            <mxPoint x="74" y="922" as="targetPoint" />
          </mxGeometry>
        </mxCell>
        <mxCell id="bC90QqJXI56sHLxBbMQ--9" value="&lt;font style=&quot;font-size: 20px;&quot;&gt;&lt;b&gt;:Database&lt;/b&gt;&lt;/font&gt;" style="shape=umlLifeline;perimeter=lifelinePerimeter;whiteSpace=wrap;html=1;container=1;dropTarget=0;collapsible=0;recursiveResize=0;outlineConnect=0;portConstraint=eastwest;newEdgeStyle={&quot;curved&quot;:0,&quot;rounded&quot;:0};size=50;" vertex="1" parent="1">
          <mxGeometry x="400" y="27" width="130" height="1293" as="geometry" />
        </mxCell>
        <mxCell id="bC90QqJXI56sHLxBbMQ--53" value="" style="html=1;points=[[0,0,0,0,5],[0,1,0,0,-5],[1,0,0,0,5],[1,1,0,0,-5]];perimeter=orthogonalPerimeter;outlineConnect=0;targetShapes=umlLifeline;portConstraint=eastwest;newEdgeStyle={&quot;curved&quot;:0,&quot;rounded&quot;:0};" vertex="1" parent="bC90QqJXI56sHLxBbMQ--9">
          <mxGeometry x="60" y="763" width="10" height="20" as="geometry" />
        </mxCell>
        <mxCell id="bC90QqJXI56sHLxBbMQ--68" value="" style="html=1;points=[[0,0,0,0,5],[0,1,0,0,-5],[1,0,0,0,5],[1,1,0,0,-5]];perimeter=orthogonalPerimeter;outlineConnect=0;targetShapes=umlLifeline;portConstraint=eastwest;newEdgeStyle={&quot;curved&quot;:0,&quot;rounded&quot;:0};" vertex="1" parent="bC90QqJXI56sHLxBbMQ--9">
          <mxGeometry x="60" y="959" width="10" height="20" as="geometry" />
        </mxCell>
        <mxCell id="bC90QqJXI56sHLxBbMQ--12" value="" style="endArrow=classic;html=1;rounded=0;fontSize=12;startSize=8;endSize=8;exitX=0.807;exitY=0;exitDx=0;exitDy=0;exitPerimeter=0;entryX=0.032;entryY=0;entryDx=0;entryDy=0;entryPerimeter=0;" edge="1" parent="1" source="bC90QqJXI56sHLxBbMQ--10" target="bC90QqJXI56sHLxBbMQ--11">
          <mxGeometry width="50" height="50" relative="1" as="geometry">
            <mxPoint x="80" y="120" as="sourcePoint" />
            <mxPoint x="250" y="120" as="targetPoint" />
          </mxGeometry>
        </mxCell>
        <mxCell id="bC90QqJXI56sHLxBbMQ--13" value="&lt;b&gt;Login&lt;/b&gt;" style="text;html=1;align=center;verticalAlign=middle;whiteSpace=wrap;rounded=0;;fontSize=16;" vertex="1" parent="1">
          <mxGeometry x="123" y="96" width="60" height="30" as="geometry" />
        </mxCell>
        <mxCell id="bC90QqJXI56sHLxBbMQ--14" value="Alt" style="shape=umlFrame;whiteSpace=wrap;html=1;pointerEvents=0;" vertex="1" parent="1">
          <mxGeometry x="3" y="96" width="717" height="264" as="geometry" />
        </mxCell>
        <mxCell id="bC90QqJXI56sHLxBbMQ--15" value="" style="html=1;points=[[0,0,0,0,5],[0,1,0,0,-5],[1,0,0,0,5],[1,1,0,0,-5]];perimeter=orthogonalPerimeter;outlineConnect=0;targetShapes=umlLifeline;portConstraint=eastwest;newEdgeStyle={&quot;curved&quot;:0,&quot;rounded&quot;:0};" vertex="1" parent="1">
          <mxGeometry x="460" y="167" width="10" height="46" as="geometry" />
        </mxCell>
        <mxCell id="bC90QqJXI56sHLxBbMQ--16" value="" style="endArrow=classic;html=1;rounded=0;fontSize=12;startSize=8;endSize=8;entryX=-0.01;entryY=-0.008;entryDx=0;entryDy=0;entryPerimeter=0;exitX=0.986;exitY=0.2;exitDx=0;exitDy=0;exitPerimeter=0;" edge="1" parent="1" source="bC90QqJXI56sHLxBbMQ--11" target="bC90QqJXI56sHLxBbMQ--15">
          <mxGeometry width="50" height="50" relative="1" as="geometry">
            <mxPoint x="270" y="170" as="sourcePoint" />
            <mxPoint x="435" y="167" as="targetPoint" />
          </mxGeometry>
        </mxCell>
        <mxCell id="bC90QqJXI56sHLxBbMQ--17" value="&lt;b&gt;Validate Password&amp;amp; Username&lt;/b&gt;" style="text;html=1;align=center;verticalAlign=middle;whiteSpace=wrap;rounded=0;;fontSize=16;" vertex="1" parent="1">
          <mxGeometry x="280" y="134" width="170" height="30" as="geometry" />
        </mxCell>
        <mxCell id="bC90QqJXI56sHLxBbMQ--19" value="" style="endArrow=classic;html=1;rounded=0;fontSize=12;startSize=8;endSize=8;exitX=0.97;exitY=1.001;exitDx=0;exitDy=0;exitPerimeter=0;" edge="1" parent="1" source="bC90QqJXI56sHLxBbMQ--15" target="bC90QqJXI56sHLxBbMQ--18">
          <mxGeometry width="50" height="50" relative="1" as="geometry">
            <mxPoint x="480" y="213" as="sourcePoint" />
            <mxPoint x="671" y="213" as="targetPoint" />
          </mxGeometry>
        </mxCell>
        <mxCell id="bC90QqJXI56sHLxBbMQ--21" value="&lt;b&gt;&lt;font style=&quot;font-size: 17px;&quot;&gt;Login Success&lt;/font&gt;&lt;/b&gt;" style="html=1;verticalAlign=bottom;endArrow=open;dashed=1;endSize=8;curved=0;rounded=0;fontSize=12;entryX=0.904;entryY=0.578;entryDx=0;entryDy=0;entryPerimeter=0;" edge="1" parent="1" source="bC90QqJXI56sHLxBbMQ--18" target="bC90QqJXI56sHLxBbMQ--10">
          <mxGeometry relative="1" as="geometry">
            <mxPoint x="680" y="259" as="sourcePoint" />
            <mxPoint x="80" y="259" as="targetPoint" />
          </mxGeometry>
        </mxCell>
        <mxCell id="bC90QqJXI56sHLxBbMQ--22" value="&lt;font size=&quot;1&quot; style=&quot;&quot;&gt;&lt;b style=&quot;font-size: 16px;&quot;&gt;[if username&amp;amp;&lt;br&gt;password=True]&lt;/b&gt;&lt;/font&gt;" style="text;html=1;align=center;verticalAlign=middle;whiteSpace=wrap;rounded=0;;fontSize=16;" vertex="1" parent="1">
          <mxGeometry x="104" y="180" width="86" height="50" as="geometry" />
        </mxCell>
        <mxCell id="bC90QqJXI56sHLxBbMQ--23" value="" style="endArrow=none;html=1;rounded=0;fontSize=12;startSize=8;endSize=8;entryX=1;entryY=0.697;entryDx=0;entryDy=0;entryPerimeter=0;exitX=0;exitY=0.697;exitDx=0;exitDy=0;exitPerimeter=0;" edge="1" parent="1" source="bC90QqJXI56sHLxBbMQ--14" target="bC90QqJXI56sHLxBbMQ--14">
          <mxGeometry width="50" height="50" relative="1" as="geometry">
            <mxPoint x="10" y="280" as="sourcePoint" />
            <mxPoint x="420" y="290" as="targetPoint" />
          </mxGeometry>
        </mxCell>
        <mxCell id="bC90QqJXI56sHLxBbMQ--24" value="&lt;div style=&quot;text-align: center;&quot;&gt;&lt;span style=&quot;background-color: initial;&quot;&gt;&lt;b style=&quot;&quot;&gt;&lt;font style=&quot;font-size: 16px;&quot;&gt;Else&lt;/font&gt;&lt;/b&gt;&lt;/span&gt;&lt;/div&gt;" style="text;whiteSpace=wrap;html=1;" vertex="1" parent="1">
          <mxGeometry x="83" y="290" width="40" height="30" as="geometry" />
        </mxCell>
        <mxCell id="bC90QqJXI56sHLxBbMQ--26" value="&lt;b&gt;&lt;font style=&quot;font-size: 17px;&quot;&gt;Login&amp;nbsp; Failed&lt;/font&gt;&lt;/b&gt;" style="html=1;verticalAlign=bottom;endArrow=open;dashed=1;endSize=8;curved=0;rounded=0;fontSize=12;exitX=-0.122;exitY=0.998;exitDx=0;exitDy=0;exitPerimeter=0;entryX=0.952;entryY=0.943;entryDx=0;entryDy=0;entryPerimeter=0;" edge="1" parent="1" source="bC90QqJXI56sHLxBbMQ--11" target="bC90QqJXI56sHLxBbMQ--10">
          <mxGeometry relative="1" as="geometry">
            <mxPoint x="244" y="340" as="sourcePoint" />
            <mxPoint x="164" y="340" as="targetPoint" />
          </mxGeometry>
        </mxCell>
        <mxCell id="bC90QqJXI56sHLxBbMQ--31" value="" style="endArrow=classic;html=1;rounded=0;fontSize=12;startSize=8;endSize=8;entryX=-0.011;entryY=0.015;entryDx=0;entryDy=0;entryPerimeter=0;" edge="1" parent="1" source="bC90QqJXI56sHLxBbMQ--18" target="bC90QqJXI56sHLxBbMQ--30">
          <mxGeometry width="50" height="50" relative="1" as="geometry">
            <mxPoint x="710" y="480" as="sourcePoint" />
            <mxPoint x="910" y="480" as="targetPoint" />
          </mxGeometry>
        </mxCell>
        <mxCell id="bC90QqJXI56sHLxBbMQ--33" value="&lt;b&gt;&lt;font style=&quot;font-size: 17px;&quot;&gt;Add Client&lt;/font&gt;&lt;/b&gt;" style="text;html=1;align=center;verticalAlign=middle;whiteSpace=wrap;rounded=0;;fontSize=16;" vertex="1" parent="1">
          <mxGeometry x="728" y="453" width="170" height="30" as="geometry" />
        </mxCell>
        <mxCell id="bC90QqJXI56sHLxBbMQ--36" value="Alt" style="shape=umlFrame;whiteSpace=wrap;html=1;pointerEvents=0;" vertex="1" parent="1">
          <mxGeometry x="390" y="451" width="710" height="189" as="geometry" />
        </mxCell>
        <mxCell id="bC90QqJXI56sHLxBbMQ--37" value="&lt;font size=&quot;1&quot; style=&quot;&quot;&gt;&lt;b style=&quot;font-size: 15px;&quot;&gt;[if Details.Empty]&lt;/b&gt;&lt;/font&gt;" style="text;html=1;align=center;verticalAlign=middle;whiteSpace=wrap;rounded=0;;fontSize=16;" vertex="1" parent="1">
          <mxGeometry x="952" y="514" width="116" height="24" as="geometry" />
        </mxCell>
        <mxCell id="bC90QqJXI56sHLxBbMQ--38" value="" style="endArrow=none;html=1;rounded=0;fontSize=12;startSize=8;endSize=8;exitX=-0.001;exitY=0.498;exitDx=0;exitDy=0;exitPerimeter=0;entryX=1.002;entryY=0.494;entryDx=0;entryDy=0;entryPerimeter=0;" edge="1" parent="1" source="bC90QqJXI56sHLxBbMQ--36" target="bC90QqJXI56sHLxBbMQ--36">
          <mxGeometry width="50" height="50" relative="1" as="geometry">
            <mxPoint x="850" y="510" as="sourcePoint" />
            <mxPoint x="900" y="460" as="targetPoint" />
          </mxGeometry>
        </mxCell>
        <mxCell id="bC90QqJXI56sHLxBbMQ--39" value="&lt;b&gt;&lt;font style=&quot;font-size: 17px;&quot;&gt;Registered Successfully&lt;/font&gt;&lt;/b&gt;" style="html=1;verticalAlign=bottom;endArrow=open;dashed=1;endSize=8;curved=0;rounded=0;fontSize=12;exitX=0.08;exitY=0.999;exitDx=0;exitDy=0;exitPerimeter=0;" edge="1" parent="1" source="bC90QqJXI56sHLxBbMQ--30" target="bC90QqJXI56sHLxBbMQ--18">
          <mxGeometry x="0.0021" relative="1" as="geometry">
            <mxPoint x="878" y="560" as="sourcePoint" />
            <mxPoint x="720" y="587" as="targetPoint" />
            <mxPoint as="offset" />
          </mxGeometry>
        </mxCell>
        <mxCell id="bC90QqJXI56sHLxBbMQ--40" value="&lt;div style=&quot;text-align: center;&quot;&gt;&lt;span style=&quot;background-color: initial;&quot;&gt;&lt;b style=&quot;&quot;&gt;&lt;font style=&quot;font-size: 17px;&quot;&gt;Else&lt;/font&gt;&lt;/b&gt;&lt;/span&gt;&lt;/div&gt;" style="text;whiteSpace=wrap;html=1;" vertex="1" parent="1">
          <mxGeometry x="702" y="540" width="40" height="7" as="geometry" />
        </mxCell>
        <mxCell id="bC90QqJXI56sHLxBbMQ--41" value="" style="endArrow=open;endFill=1;endSize=12;html=1;rounded=0;fontSize=12;entryX=0.812;entryY=0.494;entryDx=0;entryDy=0;entryPerimeter=0;exitX=0.072;exitY=0.683;exitDx=0;exitDy=0;exitPerimeter=0;" edge="1" parent="1">
          <mxGeometry width="160" relative="1" as="geometry">
            <mxPoint x="916.72" y="580.9369999999999" as="sourcePoint" />
            <mxPoint x="468.1199999999999" y="580.8800000000001" as="targetPoint" />
          </mxGeometry>
        </mxCell>
        <mxCell id="bC90QqJXI56sHLxBbMQ--42" value="" style="html=1;points=[[0,0,0,0,5],[0,1,0,0,-5],[1,0,0,0,5],[1,1,0,0,-5]];perimeter=orthogonalPerimeter;outlineConnect=0;targetShapes=umlLifeline;portConstraint=eastwest;newEdgeStyle={&quot;curved&quot;:0,&quot;rounded&quot;:0};" vertex="1" parent="1">
          <mxGeometry x="460" y="570" width="10" height="20" as="geometry" />
        </mxCell>
        <mxCell id="bC90QqJXI56sHLxBbMQ--43" value="&lt;b&gt;insert&lt;/b&gt;" style="text;html=1;align=center;verticalAlign=middle;whiteSpace=wrap;rounded=0;;fontSize=16;" vertex="1" parent="1">
          <mxGeometry x="580" y="557" width="60" height="30" as="geometry" />
        </mxCell>
        <mxCell id="bC90QqJXI56sHLxBbMQ--44" value="Alt" style="shape=umlFrame;whiteSpace=wrap;html=1;pointerEvents=0;" vertex="1" parent="1">
          <mxGeometry x="390" y="670" width="710" height="189" as="geometry" />
        </mxCell>
        <mxCell id="bC90QqJXI56sHLxBbMQ--46" value="" style="endArrow=classic;html=1;rounded=0;fontSize=12;startSize=8;endSize=8;entryX=0.01;entryY=0.001;entryDx=0;entryDy=0;entryPerimeter=0;" edge="1" parent="1" source="bC90QqJXI56sHLxBbMQ--18" target="bC90QqJXI56sHLxBbMQ--45">
          <mxGeometry width="50" height="50" relative="1" as="geometry">
            <mxPoint x="710" y="695" as="sourcePoint" />
            <mxPoint x="910" y="690" as="targetPoint" />
          </mxGeometry>
        </mxCell>
        <mxCell id="bC90QqJXI56sHLxBbMQ--47" value="&lt;b style=&quot;border-color: var(--border-color);&quot;&gt;&lt;font style=&quot;font-size: 17px;&quot;&gt;Update Client&lt;/font&gt;&lt;/b&gt;" style="text;html=1;align=center;verticalAlign=middle;whiteSpace=wrap;rounded=0;;fontSize=16;" vertex="1" parent="1">
          <mxGeometry x="728" y="670" width="170" height="30" as="geometry" />
        </mxCell>
        <mxCell id="bC90QqJXI56sHLxBbMQ--50" value="" style="endArrow=none;html=1;rounded=0;fontSize=12;startSize=8;endSize=8;exitX=-0.001;exitY=0.476;exitDx=0;exitDy=0;exitPerimeter=0;entryX=1;entryY=0.476;entryDx=0;entryDy=0;entryPerimeter=0;" edge="1" parent="1" source="bC90QqJXI56sHLxBbMQ--44" target="bC90QqJXI56sHLxBbMQ--44">
          <mxGeometry width="50" height="50" relative="1" as="geometry">
            <mxPoint x="389" y="765" as="sourcePoint" />
            <mxPoint x="1041" y="764" as="targetPoint" />
          </mxGeometry>
        </mxCell>
        <mxCell id="bC90QqJXI56sHLxBbMQ--51" value="&lt;font size=&quot;1&quot; style=&quot;&quot;&gt;&lt;b style=&quot;font-size: 15px;&quot;&gt;[if Details.Empty]&lt;/b&gt;&lt;/font&gt;" style="text;html=1;align=center;verticalAlign=middle;whiteSpace=wrap;rounded=0;;fontSize=16;" vertex="1" parent="1">
          <mxGeometry x="951" y="730" width="116" height="24" as="geometry" />
        </mxCell>
        <mxCell id="bC90QqJXI56sHLxBbMQ--52" value="" style="endArrow=open;endFill=1;endSize=12;html=1;rounded=0;fontSize=12;exitX=0.043;exitY=0.754;exitDx=0;exitDy=0;exitPerimeter=0;entryX=1;entryY=0.5;entryDx=0;entryDy=0;entryPerimeter=0;" edge="1" parent="1" source="bC90QqJXI56sHLxBbMQ--45" target="bC90QqJXI56sHLxBbMQ--53">
          <mxGeometry width="160" relative="1" as="geometry">
            <mxPoint x="916.72" y="800.9369999999999" as="sourcePoint" />
            <mxPoint x="480" y="801" as="targetPoint" />
          </mxGeometry>
        </mxCell>
        <mxCell id="bC90QqJXI56sHLxBbMQ--54" value="&lt;div style=&quot;text-align: center;&quot;&gt;&lt;span style=&quot;background-color: initial;&quot;&gt;&lt;b style=&quot;&quot;&gt;&lt;font style=&quot;font-size: 17px;&quot;&gt;Else&lt;/font&gt;&lt;/b&gt;&lt;/span&gt;&lt;/div&gt;" style="text;whiteSpace=wrap;html=1;" vertex="1" parent="1">
          <mxGeometry x="707" y="763" width="40" height="7" as="geometry" />
        </mxCell>
        <mxCell id="bC90QqJXI56sHLxBbMQ--56" value="&lt;b&gt;Update&lt;/b&gt;" style="text;html=1;align=center;verticalAlign=middle;whiteSpace=wrap;rounded=0;;fontSize=16;" vertex="1" parent="1">
          <mxGeometry x="580" y="774" width="60" height="30" as="geometry" />
        </mxCell>
        <mxCell id="bC90QqJXI56sHLxBbMQ--57" value="&lt;b&gt;&lt;font style=&quot;font-size: 17px;&quot;&gt;Updated Successfully&lt;/font&gt;&lt;/b&gt;" style="html=1;verticalAlign=bottom;endArrow=open;dashed=1;endSize=8;curved=0;rounded=0;fontSize=12;exitX=0.077;exitY=0.998;exitDx=0;exitDy=0;exitPerimeter=0;" edge="1" parent="1" source="bC90QqJXI56sHLxBbMQ--45" target="bC90QqJXI56sHLxBbMQ--18">
          <mxGeometry x="0.0029" relative="1" as="geometry">
            <mxPoint x="919" y="840" as="sourcePoint" />
            <mxPoint x="710" y="834" as="targetPoint" />
            <mxPoint as="offset" />
          </mxGeometry>
        </mxCell>
        <mxCell id="bC90QqJXI56sHLxBbMQ--61" value="" style="endArrow=classic;html=1;rounded=0;fontSize=12;startSize=8;endSize=8;entryX=-0.077;entryY=0.006;entryDx=0;entryDy=0;entryPerimeter=0;" edge="1" parent="1" source="bC90QqJXI56sHLxBbMQ--18" target="bC90QqJXI56sHLxBbMQ--62">
          <mxGeometry width="50" height="50" relative="1" as="geometry">
            <mxPoint x="710" y="920" as="sourcePoint" />
            <mxPoint x="900" y="920" as="targetPoint" />
          </mxGeometry>
        </mxCell>
        <mxCell id="bC90QqJXI56sHLxBbMQ--64" value="&lt;b style=&quot;border-color: var(--border-color);&quot;&gt;&lt;font style=&quot;font-size: 17px;&quot;&gt;Delete Client&lt;/font&gt;&lt;/b&gt;" style="text;html=1;align=center;verticalAlign=middle;whiteSpace=wrap;rounded=0;;fontSize=16;" vertex="1" parent="1">
          <mxGeometry x="728" y="890" width="170" height="30" as="geometry" />
        </mxCell>
        <mxCell id="bC90QqJXI56sHLxBbMQ--66" value="&lt;b style=&quot;&quot;&gt;&lt;font style=&quot;font-size: 15px;&quot;&gt;[Confirm Delete =ok]&lt;/font&gt;&lt;/b&gt;" style="text;html=1;align=center;verticalAlign=middle;whiteSpace=wrap;rounded=0;;fontSize=16;" vertex="1" parent="1">
          <mxGeometry x="930" y="970" width="150" height="24" as="geometry" />
        </mxCell>
        <mxCell id="bC90QqJXI56sHLxBbMQ--67" value="" style="endArrow=open;endFill=1;endSize=12;html=1;rounded=0;fontSize=12;entryX=0.995;entryY=0.557;entryDx=0;entryDy=0;entryPerimeter=0;" edge="1" parent="1" source="bC90QqJXI56sHLxBbMQ--62" target="bC90QqJXI56sHLxBbMQ--68">
          <mxGeometry width="160" relative="1" as="geometry">
            <mxPoint x="916" y="1000" as="sourcePoint" />
            <mxPoint x="470" y="1000" as="targetPoint" />
          </mxGeometry>
        </mxCell>
        <mxCell id="bC90QqJXI56sHLxBbMQ--69" value="&lt;b&gt;Delete&lt;/b&gt;" style="text;html=1;align=center;verticalAlign=middle;whiteSpace=wrap;rounded=0;;fontSize=16;" vertex="1" parent="1">
          <mxGeometry x="580" y="970" width="60" height="30" as="geometry" />
        </mxCell>
        <mxCell id="bC90QqJXI56sHLxBbMQ--71" value="" style="endArrow=classic;html=1;rounded=0;fontSize=12;startSize=8;endSize=8;exitX=0.993;exitY=0;exitDx=0;exitDy=0;exitPerimeter=0;entryX=0.018;entryY=0.918;entryDx=0;entryDy=0;entryPerimeter=0;" edge="1" parent="1" source="bC90QqJXI56sHLxBbMQ--70" target="bC90QqJXI56sHLxBbMQ--18">
          <mxGeometry width="50" height="50" relative="1" as="geometry">
            <mxPoint x="80" y="1080" as="sourcePoint" />
            <mxPoint x="680" y="1080" as="targetPoint" />
          </mxGeometry>
        </mxCell>
        <mxCell id="bC90QqJXI56sHLxBbMQ--73" value="&lt;b&gt;LogOut&lt;/b&gt;" style="text;html=1;align=center;verticalAlign=middle;whiteSpace=wrap;rounded=0;;fontSize=16;" vertex="1" parent="1">
          <mxGeometry x="334" y="1053" width="60" height="30" as="geometry" />
        </mxCell>
        <mxCell id="bC90QqJXI56sHLxBbMQ--75" style="edgeStyle=none;curved=1;rounded=0;orthogonalLoop=1;jettySize=auto;html=1;exitX=0.75;exitY=0;exitDx=0;exitDy=0;fontSize=12;startSize=8;endSize=8;" edge="1" parent="1">
          <mxGeometry relative="1" as="geometry">
            <mxPoint x="1035.0000000000005" y="967" as="sourcePoint" />
            <mxPoint x="1035.000000000001" y="967" as="targetPoint" />
          </mxGeometry>
        </mxCell>
        <mxCell id="bC90QqJXI56sHLxBbMQ--77" value="&lt;b style=&quot;&quot;&gt;&lt;font style=&quot;font-size: 15px;&quot;&gt;[Confirm LogOut =ok]&lt;/font&gt;&lt;/b&gt;" style="text;html=1;align=center;verticalAlign=middle;whiteSpace=wrap;rounded=0;;fontSize=16;" vertex="1" parent="1">
          <mxGeometry x="705" y="1135" width="150" height="24" as="geometry" />
        </mxCell>
        <mxCell id="bC90QqJXI56sHLxBbMQ--81" value="" style="html=1;verticalAlign=bottom;endArrow=open;dashed=1;endSize=8;curved=0;rounded=0;fontSize=12;exitX=0.026;exitY=1;exitDx=0;exitDy=0;exitPerimeter=0;entryX=0.981;entryY=0.4;entryDx=0;entryDy=0;entryPerimeter=0;" edge="1" parent="1" source="bC90QqJXI56sHLxBbMQ--18" target="bC90QqJXI56sHLxBbMQ--78">
          <mxGeometry relative="1" as="geometry">
            <mxPoint x="684" y="1147.17" as="sourcePoint" />
            <mxPoint x="270" y="1157" as="targetPoint" />
          </mxGeometry>
        </mxCell>
      </root>
    </mxGraphModel>
  </diagram>
</mxfile>
